<svg aria-hidden="true" style="position: absolute; width: 0; height: 0; overflow: hidden;" version="1.1" xmlns="http://www.w3.org/2000/svg" xmlns:xlink="http://www.w3.org/1999/xlink">
<defs>
<symbol id="icon-instagram" viewBox="0 0 32 32">
<path stroke-linejoin="round" stroke-linecap="round" stroke-miterlimit="4" stroke-width="2.6667" d="M22.667 2.667h-13.333c-3.682 0-6.667 2.985-6.667 6.667v13.333c0 3.682 2.985 6.667 6.667 6.667h13.333c3.682 0 6.667-2.985 6.667-6.667v-13.333c0-3.682-2.985-6.667-6.667-6.667z"></path>
<path stroke-linejoin="round" stroke-linecap="round" stroke-miterlimit="4" stroke-width="2.6667" d="M21.333 15.16c0.165 1.11-0.025 2.243-0.542 3.239s-1.334 1.803-2.336 2.308c-1.002 0.504-2.138 0.68-3.245 0.502s-2.131-0.701-2.924-1.494-1.316-1.816-1.494-2.924c-0.178-1.107-0.003-2.243 0.502-3.245s1.312-1.82 2.307-2.336c0.996-0.517 2.129-0.706 3.239-0.542 1.132 0.168 2.18 0.695 2.989 1.504s1.337 1.857 1.505 2.989z"></path>
<path stroke-linejoin="round" stroke-linecap="round" stroke-miterlimit="4" stroke-width="2.6667" d="M23.333 8.667h0.013"></path>
</symbol>
<symbol id="icon-facebook" viewBox="0 0 32 32">
<path stroke-linejoin="round" stroke-linecap="round" stroke-miterlimit="4" stroke-width="2.6667" d="M24 2.667h-4c-1.768 0-3.464 0.702-4.714 1.953s-1.953 2.946-1.953 4.714v4h-4v5.333h4v10.667h5.333v-10.667h4l1.333-5.333h-5.333v-4c0-0.354 0.141-0.693 0.391-0.943s0.589-0.391 0.943-0.391h4v-5.333z"></path>
</symbol>
<symbol id="icon-twitter" viewBox="0 0 37 32">
<path stroke-linejoin="round" stroke-linecap="round" stroke-miterlimit="4" stroke-width="2.4615" d="M35.32 2.169c-1.473 1.039-3.105 1.834-4.831 2.354-0.927-1.065-2.158-1.82-3.528-2.163s-2.812-0.257-4.131 0.247c-1.319 0.503-2.452 1.4-3.245 2.568s-1.208 2.552-1.189 3.963v1.538c-2.704 0.070-5.383-0.53-7.799-1.745s-4.493-3.011-6.048-5.224c0 0-6.154 13.846 7.692 20-3.168 2.151-6.943 3.229-10.769 3.077 13.846 7.692 30.769 0 30.769-17.692-0.001-0.429-0.043-0.856-0.123-1.277 1.57-1.548 2.678-3.504 3.2-5.646v0z"></path>
</symbol>
</defs>
</svg>
